<svg width="16" height="16" viewBox="0 0 16 16" fill="none" xmlns="http://www.w3.org/2000/svg">
<path d="M13.2428 0.761719H2.6903C2.41973 0.761719 2.2168 0.96465 2.2168 1.23523V13.4111C2.2168 14.4258 3.02852 15.2375 4.04318 15.2375H11.9575C12.9722 15.2375 13.7839 14.4258 13.7839 13.4111V1.23523C13.7163 0.96465 13.5133 0.761719 13.2428 0.761719ZM12.8369 13.4111C12.8369 13.8846 12.431 14.2905 11.9575 14.2905H5.86957L10.4694 9.69071C10.6723 9.48778 10.6723 9.21721 10.4694 9.08192C10.2664 8.94663 9.99585 8.87899 9.86056 9.08192L4.71962 14.2229C4.71962 14.2229 4.71962 14.2905 4.65198 14.2905H4.04318C3.56967 14.2905 3.16381 13.8846 3.16381 13.4111V5.69972H12.9045V13.4111H12.8369ZM12.8369 3.33219H3.09617V1.64109H12.8369V3.33219Z" fill="currentColor"/>
<path d="M6.20793 11.5178C6.34322 11.5178 6.41086 11.4502 6.54615 11.3825L10.1313 7.79742C10.3342 7.59449 10.3342 7.32391 10.1313 7.18862C9.92834 7.05334 9.65777 6.98569 9.52248 7.18862L5.93735 10.7737C5.73442 10.9767 5.73442 11.2473 5.93735 11.3825C5.93735 11.4502 6.07264 11.5178 6.20793 11.5178Z" fill="currentColor"/>
</svg>
