<svg width="16" height="17" viewBox="0 0 16 17" fill="none" xmlns="http://www.w3.org/2000/svg">
<path d="M7.99843 9.08481V15.5715L2.61328 12.4505V5.96387L7.99843 9.08481Z" fill="currentColor"/>
<path d="M8.18264 8.77914L2.7975 5.6582C2.67511 5.53581 2.55272 5.53581 2.43033 5.6582C2.30794 5.71939 2.18555 5.84178 2.18555 5.96417V12.4508C2.18555 12.5732 2.24674 12.6956 2.36913 12.818L7.75428 15.9389C7.81547 16.0001 7.87667 16.0001 7.93786 16.0001C7.99906 16.0001 8.06025 16.0001 8.12145 15.9389C8.24384 15.8777 8.30503 15.7554 8.30503 15.5718V9.08511C8.42742 8.96272 8.30503 8.84033 8.18264 8.77914ZM7.63189 9.32989V14.8986L3.04228 12.206V6.63732L7.63189 9.32989Z" fill="currentColor"/>
<path d="M7.99965 9.08481L6.46978 11.1042L1.02344 7.9221L2.6145 5.96387L7.99965 9.08481Z" fill="white"/>
<path d="M8.18322 8.77901L2.79807 5.59688C2.61449 5.47449 2.36971 5.53568 2.24732 5.71927L0.717445 7.6775C0.65625 7.79989 0.65625 7.86109 0.65625 7.98348C0.65625 8.10587 0.717445 8.16706 0.839835 8.22826L6.22498 11.4104C6.28618 11.4716 6.34737 11.4716 6.40857 11.4716C6.53096 11.4716 6.65335 11.4104 6.71454 11.288L8.24441 9.32976C8.30561 9.26857 8.3668 9.14618 8.30561 9.02379C8.3668 8.9014 8.30561 8.84021 8.18322 8.77901ZM7.38769 9.20737L6.34737 10.5537L1.63537 7.79989L2.67568 6.45361L7.38769 9.20737Z" fill="currentColor"/>
<path d="M8.06055 9.08481V15.5715L13.4457 12.4505V5.96387L8.06055 9.08481Z" fill="currentColor"/>
<path d="M13.8135 5.96385C13.8135 5.84146 13.7523 5.71907 13.6299 5.59668C13.5075 5.53548 13.3239 5.53548 13.2015 5.59668L7.8164 8.71762C7.69401 8.77881 7.63281 8.9012 7.63281 9.08478V15.5714C7.63281 15.6938 7.69401 15.8162 7.8164 15.9386C7.87759 15.9998 7.93879 15.9998 7.99998 15.9998C8.06118 15.9998 8.12237 15.9998 8.18357 15.9386L13.5687 12.8177C13.6911 12.7565 13.7523 12.6341 13.7523 12.4505L13.8135 5.96385ZM13.018 12.2057L8.42835 14.8983V9.32956L13.018 6.63699V12.2057Z" fill="currentColor"/>
<path d="M8 9.08481L9.52987 11.1042L14.9762 7.9221L13.3851 5.96387L8 9.08481Z" fill="white"/>
<path d="M15.2815 7.67777L13.7517 5.71954C13.6293 5.53595 13.3845 5.53595 13.2621 5.59715L7.87694 8.77928C7.75455 8.84047 7.69336 8.96286 7.69336 9.02406C7.69336 9.14645 7.69336 9.26884 7.75455 9.33003L9.28443 11.2883C9.34562 11.4107 9.46801 11.4719 9.5904 11.4719C9.6516 11.4719 9.71279 11.4719 9.77398 11.4107L15.1591 8.22852C15.2815 8.16733 15.3427 8.04494 15.3427 7.98375C15.3427 7.86136 15.3427 7.80016 15.2815 7.67777ZM14.3636 7.80016L9.65159 10.5539L8.61128 9.20764L13.3233 6.45387L14.3636 7.80016Z" fill="currentColor"/>
<path d="M14.8535 3.6996L9.71311 0.82344C9.52952 0.70105 9.28474 0.762245 9.16235 0.94583L7.99965 2.29212L6.89814 0.94583C6.77575 0.762245 6.53097 0.70105 6.34739 0.82344L1.20702 3.6996C1.08463 3.76079 1.02344 3.82199 1.02344 3.94438C1.02344 4.06677 1.02344 4.18916 1.08463 4.25035L2.55331 6.025C2.6757 6.20859 2.92048 6.26978 3.10406 6.14739L7.99965 3.39362L12.9564 6.14739C13.0176 6.20859 13.0788 6.20859 13.14 6.20859C13.2624 6.20859 13.3848 6.14739 13.446 6.0862L14.9147 4.31155C14.9759 4.25035 15.0371 4.12796 14.9759 4.00557C14.9759 3.82199 14.9147 3.76079 14.8535 3.6996ZM13.9967 4.12796L13.0176 5.29066L8.6116 2.84287L9.59072 1.68017L13.9967 4.12796ZM7.4489 2.84287L3.04287 5.29066L2.06375 4.12796L6.46978 1.68017L7.4489 2.84287Z" fill="currentColor"/>
<path fill-rule="evenodd" clip-rule="evenodd" d="M8.03418 9.5C8.25585 9.5 8.43555 9.65224 8.43555 9.84003L8.43555 15.7695C8.43555 15.9572 8.25585 16.1095 8.03418 16.1095C7.81251 16.1095 7.63281 15.9572 7.63281 15.7695L7.63281 9.84003C7.63281 9.65224 7.81251 9.5 8.03418 9.5Z" fill="white"/>
</svg>
