<svg width="162" height="25" viewBox="0 0 162 25" fill="none" xmlns="http://www.w3.org/2000/svg">
<path d="M38.8871 12.5768C38.7137 12.5768 38.5955 12.5867 38.5955 12.778C38.5955 13.496 39.5081 13.9257 40.682 13.9257C41.7178 13.9257 41.9541 13.6003 42.394 13.6003C42.746 13.6003 42.9722 13.7941 42.9722 14.2114C42.9722 15.4437 41.1371 16.2063 39.5986 16.2063C37.0746 16.2063 35.3174 14.7729 35.3174 12.4848C35.3174 10.1148 36.7553 8.5 39.5986 8.5C41.8133 8.5 42.9722 9.91606 42.9722 11.4961C42.9722 12.3532 42.6655 12.5743 42.0697 12.5743H38.8871V12.5768ZM40.1013 10.8427C40.1013 10.326 39.8902 9.84401 39.3522 9.84401C38.7815 9.84401 38.5503 10.2986 38.5503 11.0837C38.5503 11.3222 38.7011 11.357 38.9952 11.357C39.0933 11.357 39.4201 11.3545 39.5156 11.3545C39.9027 11.357 40.1013 11.2973 40.1013 10.8427Z" fill="white"/>
<path d="M47.143 12.5768C46.9695 12.5768 46.8514 12.5867 46.8514 12.778C46.8514 13.496 47.7639 13.9257 48.9379 13.9257C49.9736 13.9257 50.2099 13.6003 50.6499 13.6003C51.0018 13.6003 51.2281 13.7941 51.2281 14.2114C51.2281 15.4437 49.3929 16.2063 47.8544 16.2063C45.3305 16.2063 43.5732 14.7729 43.5732 12.4848C43.5732 10.1148 45.0112 8.5 47.8544 8.5C50.0692 8.5 51.2281 9.91606 51.2281 11.4961C51.2281 12.3532 50.9214 12.5743 50.3256 12.5743H47.143V12.5768ZM48.3572 10.8427C48.3572 10.326 48.146 9.84401 47.6081 9.84401C47.0374 9.84401 46.8061 10.2986 46.8061 11.0837C46.8061 11.3222 46.957 11.357 47.2511 11.357C47.3491 11.357 47.6759 11.3545 47.7715 11.3545C48.1586 11.357 48.3572 11.2973 48.3572 10.8427Z" fill="white"/>
<path d="M13.7314 12.5768C13.558 12.5768 13.4398 12.5867 13.4398 12.778C13.4398 13.496 14.3524 13.9257 15.5264 13.9257C16.5621 13.9257 16.7984 13.6003 17.2383 13.6003C17.5903 13.6003 17.8165 13.7941 17.8165 14.2114C17.8165 15.4437 15.9814 16.2063 14.4429 16.2063C11.9189 16.2063 10.1592 14.7729 10.1592 12.4848C10.1592 10.1148 11.5971 8.5 14.4429 8.5C16.6576 8.5 17.8165 9.91606 17.8165 11.4961C17.8165 12.3532 17.5098 12.5743 16.914 12.5743H13.7314V12.5768ZM14.9457 10.8427C14.9457 10.326 14.7345 9.84401 14.1965 9.84401C13.6259 9.84401 13.3946 10.2986 13.3946 11.0837C13.3946 11.3222 13.5454 11.357 13.8395 11.357C13.9376 11.357 14.2644 11.3545 14.3599 11.3545C14.7471 11.357 14.9457 11.2973 14.9457 10.8427Z" fill="white"/>
<path d="M31.7934 8.53714C30.6898 8.53714 30.3304 9.13586 30.084 9.52341C30.0312 9.60539 29.9759 9.71222 29.908 9.71222C29.8452 9.71222 29.8477 9.57558 29.8477 9.57558C29.8477 9.57558 29.8251 6.25157 29.8251 6.16213C29.8251 6.00065 29.8125 5.68018 29.3399 5.68018C28.9578 5.68018 28.1458 5.92861 27.5399 6.17704C26.9341 6.42547 25.8506 6.93227 25.8506 7.48627C25.8506 7.84153 26.112 8.00052 26.2528 8.12722C26.3735 8.23653 26.6249 8.46012 26.6249 8.98928C26.6249 9.54328 26.6249 15.6721 26.6249 15.6721C26.6249 15.6721 26.5972 16.3453 27.2684 16.3453C27.9396 16.3453 28.098 15.764 28.5379 15.764C28.9754 15.764 29.4329 16.1789 31.0091 16.1789C32.7085 16.1789 34.8101 15.1603 34.8101 12.3953C34.8101 9.63272 32.8744 8.53714 31.7934 8.53714ZM30.9412 14.6709C29.9885 14.6709 29.8477 13.4933 29.8477 12.5667C29.8477 12.0698 29.8477 11.6823 29.8477 11.1109C29.8477 10.5693 30.0714 10.4476 30.2273 10.4476C31.3233 10.4476 31.6979 12.4226 31.6979 13.4461C31.6954 13.6797 31.6954 14.6709 30.9412 14.6709Z" fill="white"/>
<path d="M10.0302 8.72803C9.67321 8.72803 9.13272 8.74293 8.54195 8.74293C7.95119 8.74293 7.51125 8.72803 7.0311 8.72803C6.61379 8.72803 6.47553 8.95658 6.47553 9.21744C6.47553 9.55033 6.62385 9.62735 6.89535 9.74908C7.00093 9.79628 7.15931 9.83851 7.15931 10.0025C7.15931 10.082 7.10903 10.231 7.0135 10.477C6.84758 10.8968 6.58865 11.4732 6.55597 11.5403C6.49815 11.657 6.42776 11.826 6.27693 11.826C6.11855 11.826 6.04816 11.6421 5.99788 11.5403C5.93001 11.3987 5.61074 10.6559 5.54287 10.4869C5.48254 10.3354 5.39204 10.1068 5.39204 9.99503C5.39204 9.86833 5.49259 9.81616 5.75404 9.70436C6.03308 9.58512 6.08084 9.52301 6.0733 9.21744C6.0733 8.94913 5.92498 8.72803 5.47248 8.72803C5.2412 8.72803 3.74291 8.74293 3.49152 8.74293C3.24265 8.74293 2.01084 8.72803 1.45527 8.72803C1.18376 8.72803 0.771484 8.89696 0.771484 9.37643C0.771484 9.70436 0.912264 9.78138 1.04801 9.83355C1.20136 9.89317 1.49046 9.99503 1.72174 10.2012C1.97564 10.4223 2.17927 10.8298 2.17927 10.8298C2.17927 10.8298 3.95157 14.2407 4.30352 14.8941C4.44178 15.15 4.48954 15.376 4.48954 15.6617C4.48954 16.1015 4.20799 16.643 3.6499 16.643C2.84294 16.643 3.33566 15.3288 2.0938 15.3288C1.32203 15.3288 0.811708 15.9127 0.811708 16.6108C0.811708 17.8529 1.81475 18.6802 3.04405 18.6802C5.3669 18.6802 6.47301 16.0443 6.88026 15.222C7.29003 14.3997 8.93915 11.1428 9.04725 10.9217C9.15534 10.7006 9.29361 10.3056 9.61287 10.1764C9.91454 10.0547 10.1031 9.99751 10.3268 9.90808C10.4953 9.841 10.6461 9.72175 10.6461 9.38637C10.6461 9.15036 10.4274 8.72803 10.0302 8.72803Z" fill="white"/>
<path d="M25.2772 10.3238C25.2772 9.7549 24.978 8.61708 24.3973 8.61708C24.2087 8.61708 24.1007 8.73881 23.6934 8.73881C23.2861 8.73881 22.8211 8.51025 21.8985 8.51025C19.6963 8.51025 18.5927 9.81949 18.5927 11.0716C18.5927 12.269 19.3997 12.7684 20.2242 13.0665C21.0689 13.3721 21.5113 13.464 21.7677 13.5435C21.9638 13.6056 22.5219 13.8267 22.5219 14.1894C22.5219 14.567 22.0393 14.5769 21.818 14.5769C21.3354 14.5769 20.8401 14.4254 20.5862 14.2565C20.3725 14.1149 20.0181 13.8217 19.8848 13.7074C19.7541 13.5932 19.4273 13.2578 19.0678 13.2578C18.6505 13.2578 18.5449 13.6876 18.5449 13.9534C18.5449 14.2192 18.5474 14.4875 18.5701 14.726C18.5902 14.9397 18.6505 15.3446 18.8969 15.5433C19.1483 15.7471 19.6787 15.829 20.0231 15.9061C20.2996 15.9682 21.1091 16.1918 21.9362 16.1918C24.6663 16.1918 25.7523 14.6266 25.7523 13.5112C25.7523 12.3088 24.7995 11.8094 23.8417 11.4964C23.6306 11.4268 22.6451 11.1287 22.4691 11.0641C22.2906 10.9995 21.8834 10.7859 21.8834 10.4629C21.8834 10.2542 22.0568 10.0729 22.4163 10.0729C22.6501 10.0729 22.982 10.1673 23.1579 10.2617C23.3088 10.3412 23.6356 10.53 23.9976 10.7287C24.2716 10.8803 24.4903 10.9598 24.7568 10.9598C25.2973 10.9623 25.2772 10.4952 25.2772 10.3238Z" fill="white"/>
<path d="M58.1626 16.0105C57.8879 16.0105 57.6681 15.9006 57.5033 15.7357C57.3384 15.5709 57.2285 15.3511 57.2285 15.0764V6.6143C57.2285 6.33956 57.3384 6.17471 57.5033 5.95492C57.6681 5.79007 57.8879 5.68018 58.1626 5.68018C58.4374 5.68018 58.6022 5.79007 58.822 5.95492C58.9869 6.11976 59.0418 6.33956 59.0418 6.6143V9.58152C59.2616 9.30678 59.5364 9.03203 59.866 8.86719C60.1957 8.70234 60.5804 8.59245 60.965 8.59245C61.2947 8.59245 61.5694 8.64739 61.8442 8.75729C62.1739 8.86719 62.3937 9.03203 62.6135 9.25183C62.8333 9.47162 62.9981 9.69142 63.108 9.96616C63.2179 10.2409 63.2729 10.5706 63.2729 10.8453V15.0214C63.2729 15.2962 63.163 15.516 62.9981 15.6808C62.8333 15.8456 62.6135 15.9555 62.3387 15.9555C62.064 15.9555 61.8442 15.8456 61.6793 15.6808C61.5145 15.516 61.4046 15.2962 61.4046 15.0214V11.23C61.4046 11.0651 61.3497 10.9003 61.2947 10.7904C61.3497 10.6805 61.2398 10.5706 61.1299 10.4607C61.02 10.3508 60.9101 10.2409 60.7452 10.186C60.6353 10.131 60.4705 10.0761 60.3056 10.0761C60.1408 10.0761 59.9759 10.131 59.8111 10.186C59.6463 10.2409 59.5364 10.3508 59.4265 10.4607C59.3166 10.5706 59.2067 10.7354 59.1517 10.8453C59.0968 11.0102 59.0418 11.175 59.0418 11.3399V15.0764C59.0418 15.3511 58.9319 15.5709 58.7671 15.7357C58.6022 15.9006 58.3824 16.0105 58.1626 16.0105Z" fill="#17F2E9" stroke="#17F2E9" stroke-width="0.4" stroke-miterlimit="10"/>
<path d="M66.076 7.71301C65.8012 7.71301 65.5265 7.60311 65.3617 7.43827C65.1419 7.21847 65.0869 6.99868 65.0869 6.72394C65.0869 6.44919 65.1968 6.17445 65.3617 6.00961C65.5815 5.78981 65.8012 5.73486 66.076 5.73486C66.3507 5.73486 66.6255 5.84476 66.7903 6.00961C67.0101 6.2294 67.0651 6.44919 67.0651 6.72394C67.0651 6.99868 66.9552 7.27342 66.7903 7.43827C66.5705 7.65806 66.3507 7.71301 66.076 7.71301ZM66.076 16.0102C65.8012 16.0102 65.5815 15.9003 65.4166 15.7355C65.2518 15.5706 65.1419 15.3508 65.1419 15.0761V9.47136C65.1419 9.19662 65.2518 8.97682 65.4166 8.81198C65.5815 8.64713 65.8012 8.53724 66.076 8.53724C66.3507 8.53724 66.5705 8.64713 66.7354 8.81198C66.9002 8.97682 67.0101 9.19662 67.0101 9.47136V15.0212C67.0101 15.2959 66.9002 15.5157 66.7354 15.6805C66.5156 15.9003 66.2958 16.0102 66.076 16.0102Z" fill="#17F2E9" stroke="#17F2E9" stroke-width="0.4" stroke-miterlimit="10"/>
<path d="M68.4934 9.74598C68.4385 9.63608 68.4385 9.58113 68.4385 9.47123C68.4385 9.25144 68.5484 9.03165 68.7132 8.8668C68.8781 8.70195 69.0979 8.59206 69.3177 8.59206C69.4825 8.59206 69.6473 8.64701 69.8122 8.7569C69.977 8.8668 70.0869 8.9767 70.1419 9.19649L71.6255 13.7572L73.0541 9.14154C73.1091 8.9767 73.219 8.81185 73.3838 8.70195C73.5487 8.59206 73.7135 8.53711 73.8784 8.53711C74.1531 8.53711 74.318 8.64701 74.4828 8.81185C74.6477 8.9767 74.7026 9.19649 74.7026 9.41629C74.7026 9.52618 74.7026 9.63608 74.6477 9.74598L72.6146 15.2958C72.5047 15.5156 72.3948 15.6804 72.175 15.8453C71.9552 15.9552 71.7903 16.0651 71.5156 16.0651C71.2958 16.0651 71.076 16.0101 70.8562 15.8453C70.6364 15.7354 70.5265 15.5156 70.4166 15.2958L68.4934 9.74598Z" fill="#17F2E9" stroke="#17F2E9" stroke-width="0.4" stroke-miterlimit="10"/>
<path d="M80.6359 13.8671C80.8557 13.8671 81.0205 13.9221 81.1853 14.0869C81.3502 14.2518 81.4051 14.4166 81.4051 14.6364C81.4051 14.7463 81.3502 14.8562 81.2952 14.9661C81.2403 15.076 81.1304 15.1859 80.9655 15.3508C80.7458 15.5156 80.471 15.6804 80.0864 15.7903C79.7567 15.9002 79.372 15.9552 78.9325 15.9552C78.4379 15.9552 77.9434 15.8453 77.5587 15.6804C77.1192 15.5156 76.7895 15.2409 76.4598 14.9112C76.1301 14.5815 75.9103 14.1968 75.7454 13.7572C75.5806 13.3177 75.4707 12.8231 75.4707 12.2736C75.4707 11.6692 75.5806 11.1747 75.7454 10.6801C75.9103 10.2405 76.185 9.80096 76.5147 9.47127C76.8444 9.14158 77.1741 8.86683 77.6137 8.70199C78.0533 8.53714 78.4929 8.42725 78.9325 8.42725C79.427 8.42725 79.9215 8.53714 80.3611 8.75694C80.8007 8.97673 81.1853 9.19652 81.4601 9.52622C81.7898 9.85591 82.0096 10.1856 82.1744 10.6252C82.3393 11.0098 82.4492 11.4494 82.4492 11.8341C82.4492 12.2187 82.3942 12.4934 82.2294 12.7132C82.0645 12.8781 81.8997 12.988 81.6799 12.988H77.3939C77.4488 13.3726 77.6137 13.7023 77.8884 13.977C78.1632 14.2518 78.5478 14.3617 79.0424 14.3617C79.4819 14.3617 79.8116 14.2518 80.0864 14.032C80.3062 13.977 80.471 13.8671 80.6359 13.8671ZM80.6908 11.889C80.6908 11.6143 80.6359 11.3945 80.526 11.1747C80.4161 10.9549 80.3062 10.79 80.1413 10.6252C79.9765 10.4603 79.8116 10.3504 79.5918 10.2405C79.372 10.1306 79.1523 10.0757 78.9325 10.0757C78.7127 10.0757 78.4929 10.1306 78.2731 10.2405C78.0533 10.3504 77.8884 10.4603 77.7785 10.6252C77.6137 10.79 77.5038 10.9549 77.4488 11.1747C77.339 11.3945 77.3389 11.6143 77.3389 11.889H80.6908Z" fill="#17F2E9" stroke="#17F2E9" stroke-width="0.4" stroke-miterlimit="10"/>
<path d="M85.4678 10.6798C85.4678 10.4051 85.5228 10.1304 85.6327 9.91056C85.7426 9.63582 85.9074 9.41602 86.1272 9.25118C86.347 9.03138 86.6218 8.92149 86.9515 8.75664C87.2811 8.64675 87.6658 8.5918 88.1603 8.5918C88.8197 8.5918 89.3142 8.70169 89.6989 8.92149C90.0835 9.14128 90.4132 9.47097 90.5781 9.80066C90.633 9.91056 90.633 9.96551 90.688 10.0205C90.688 10.0754 90.688 10.1304 90.688 10.1853C90.688 10.4051 90.633 10.5699 90.4682 10.7348C90.3033 10.8996 90.1385 10.9546 89.9187 10.9546C89.7538 10.9546 89.6439 10.8996 89.4791 10.8447C89.3692 10.7348 89.2593 10.6249 89.2043 10.515C89.0395 10.1304 88.6549 9.96551 88.1054 9.96551C87.7207 9.96551 87.446 10.0205 87.3361 10.1853C87.1712 10.2952 87.1163 10.46 87.1163 10.6249C87.1163 10.7897 87.1712 10.8996 87.2262 11.0095C87.3361 11.1194 87.446 11.1744 87.5559 11.2843C87.7207 11.3392 87.8306 11.3942 88.0504 11.4491C88.2153 11.5041 88.4351 11.559 88.5999 11.614C88.8747 11.6689 89.1494 11.7788 89.4241 11.8887C89.6989 11.9986 89.9736 12.1085 90.1934 12.2733C90.4132 12.4382 90.633 12.603 90.7978 12.8778C90.9627 13.0976 91.0176 13.4273 91.0176 13.8119C91.0176 13.9218 91.0176 14.1416 90.9627 14.3614C90.9077 14.6361 90.7979 14.8559 90.633 15.1307C90.4682 15.4054 90.1385 15.6252 89.7538 15.7901C89.4241 15.8999 88.8747 16.0098 88.2153 16.0098C87.7757 16.0098 87.446 15.9549 87.1163 15.8999C86.7866 15.845 86.5119 15.7351 86.2921 15.5703C86.0723 15.4604 85.9074 15.2955 85.7426 15.1307C85.5777 14.9658 85.4678 14.801 85.4129 14.6911C85.3579 14.5812 85.3579 14.5262 85.303 14.4163C85.303 14.3614 85.248 14.3064 85.248 14.1965C85.248 13.9767 85.303 13.8119 85.4678 13.6471C85.6327 13.4822 85.7975 13.4273 86.0723 13.4273C86.402 13.4273 86.6218 13.5921 86.7866 13.9218C86.8416 14.0866 87.0064 14.1965 87.2262 14.3614C87.446 14.5262 87.7757 14.5812 88.2153 14.5812C88.49 14.5812 88.6549 14.5262 88.8197 14.4713C88.9845 14.4163 89.0944 14.3614 89.1494 14.2515C89.2043 14.1965 89.2593 14.0866 89.3142 14.0317C89.3142 13.9767 89.3142 13.8669 89.3142 13.8119C89.3142 13.6471 89.2593 13.5372 89.2043 13.4822C89.1494 13.3723 89.0395 13.3174 88.8747 13.2075C88.7648 13.1525 88.5999 13.0976 88.4351 13.0426C88.2702 12.9877 88.0504 12.9327 87.8856 12.8778C87.6108 12.8228 87.3361 12.7129 87.0064 12.658C86.7317 12.5481 86.4569 12.4382 86.1822 12.2733C85.9624 12.1085 85.7426 11.8887 85.5777 11.614C85.5228 11.4491 85.4678 11.1194 85.4678 10.6798Z" fill="#17F2E9" stroke="#17F2E9" stroke-width="0.4" stroke-miterlimit="10"/>
<path d="M91.7883 9.74598C91.7883 9.69103 91.7334 9.63608 91.7334 9.58113C91.7334 9.52618 91.7334 9.47123 91.7334 9.41629C91.7334 9.19649 91.7883 8.9767 91.9532 8.81185C92.118 8.64701 92.2829 8.53711 92.5576 8.53711C92.7225 8.53711 92.8873 8.59206 93.0522 8.70195C93.217 8.81185 93.272 8.92175 93.3819 9.08659L95.305 13.7572L96.6238 9.19649C96.6788 9.03165 96.7887 8.8668 96.9535 8.7569C97.1183 8.64701 97.2832 8.59206 97.503 8.59206C97.7777 8.59206 97.9426 8.70195 98.1074 8.8668C98.2723 9.03165 98.3822 9.25144 98.3822 9.47123C98.3822 9.58113 98.3822 9.63608 98.3272 9.74598L96.1842 16.5596C95.9644 17.219 95.6347 17.7135 95.2501 17.9883C94.8105 18.263 94.316 18.4278 93.7665 18.4278H92.9423C92.7225 18.4278 92.5576 18.3729 92.3928 18.208C92.2279 18.0432 92.173 17.8784 92.173 17.6586C92.173 17.4388 92.2279 17.2739 92.3928 17.1091C92.5576 16.9442 92.7225 16.8893 92.9423 16.8893H93.5467C93.8214 16.8893 93.9863 16.8343 94.1511 16.6695C94.316 16.5046 94.4808 16.2299 94.5358 15.8453L91.7883 9.74598Z" fill="#17F2E9" stroke="#17F2E9" stroke-width="0.4" stroke-miterlimit="10"/>
<path d="M99.2051 10.6798C99.2051 10.4051 99.2601 10.1304 99.37 9.91056C99.4799 9.63582 99.6447 9.41602 99.8645 9.25118C100.084 9.03138 100.359 8.92149 100.689 8.75664C101.018 8.64675 101.403 8.5918 101.898 8.5918C102.557 8.5918 103.052 8.70169 103.436 8.92149C103.821 9.14128 104.151 9.47097 104.315 9.80066C104.37 9.91056 104.37 9.96551 104.425 10.0205C104.425 10.0754 104.425 10.1304 104.425 10.1853C104.425 10.4051 104.37 10.5699 104.205 10.7348C104.041 10.8996 103.876 10.9546 103.656 10.9546C103.491 10.9546 103.381 10.8996 103.216 10.8447C103.161 10.7348 103.052 10.6249 102.997 10.515C102.832 10.1304 102.447 9.96551 101.898 9.96551C101.513 9.96551 101.238 10.0205 101.128 10.1853C100.963 10.2952 100.854 10.46 100.854 10.6249C100.854 10.7897 100.909 10.8996 100.963 11.0095C101.073 11.1194 101.183 11.1744 101.293 11.2843C101.458 11.3392 101.568 11.3942 101.788 11.4491C101.953 11.5041 102.172 11.559 102.337 11.614C102.612 11.6689 102.887 11.7788 103.161 11.8887C103.436 11.9986 103.711 12.1085 103.931 12.2733C104.151 12.4382 104.37 12.603 104.535 12.8778C104.7 13.0976 104.755 13.4273 104.755 13.8119C104.755 13.9218 104.755 14.1416 104.7 14.3614C104.645 14.6361 104.535 14.8559 104.37 15.1307C104.205 15.4054 103.876 15.6252 103.491 15.7901C103.161 15.8999 102.612 16.0098 101.953 16.0098C101.513 16.0098 101.183 15.9549 100.854 15.8999C100.524 15.845 100.249 15.7351 100.029 15.5703C99.8096 15.4604 99.6447 15.2955 99.4799 15.1307C99.315 14.9658 99.2051 14.801 99.1502 14.6911C99.0953 14.5812 99.0952 14.5262 99.0403 14.4163C99.0403 14.3614 98.9854 14.3064 98.9854 14.1965C98.9854 13.9767 99.0403 13.8119 99.2051 13.6471C99.37 13.4822 99.5348 13.4273 99.8096 13.4273C100.139 13.4273 100.359 13.5921 100.524 13.9218C100.579 14.0866 100.744 14.1965 100.963 14.3614C101.183 14.5262 101.513 14.5812 101.953 14.5812C102.227 14.5812 102.392 14.5262 102.557 14.4713C102.722 14.4163 102.832 14.3614 102.887 14.2515C102.942 14.1965 102.997 14.0866 103.052 14.0317C103.052 13.9767 103.052 13.8669 103.052 13.8119C103.052 13.6471 102.997 13.5372 102.942 13.4822C102.887 13.3723 102.777 13.3174 102.612 13.2075C102.502 13.1525 102.337 13.0976 102.172 13.0426C102.008 12.9877 101.788 12.9327 101.623 12.8778C101.348 12.8228 101.073 12.7129 100.744 12.658C100.469 12.5481 100.194 12.4382 99.9195 12.2733C99.6997 12.1085 99.4799 11.8887 99.315 11.614C99.2601 11.4491 99.2051 11.1194 99.2051 10.6798Z" fill="#17F2E9" stroke="#17F2E9" stroke-width="0.4" stroke-miterlimit="10"/>
<path d="M106.076 10.1303C105.911 10.1303 105.746 10.0753 105.581 9.91049C105.471 9.80059 105.361 9.63574 105.361 9.41595C105.361 9.2511 105.416 9.08626 105.581 8.92141C105.691 8.81152 105.856 8.70162 106.076 8.70162H106.46V7.38285C106.46 7.10811 106.57 6.88832 106.735 6.72347C106.9 6.55863 107.12 6.44873 107.394 6.44873C107.669 6.44873 107.889 6.55863 108.054 6.72347C108.219 6.88832 108.329 7.10811 108.329 7.38285V8.75657H109.537C109.702 8.75657 109.867 8.81152 110.032 8.97636C110.142 9.08626 110.252 9.2511 110.252 9.4709C110.252 9.63574 110.197 9.80059 110.032 9.96543C109.922 10.0753 109.757 10.1852 109.537 10.1852H108.329V13.8668C108.329 14.0866 108.383 14.2514 108.438 14.3064C108.493 14.4163 108.658 14.4163 108.933 14.4163H109.263C109.482 14.4163 109.647 14.4712 109.812 14.6361C109.977 14.8009 110.032 14.9657 110.032 15.1855C110.032 15.4053 109.977 15.5702 109.812 15.735C109.647 15.8999 109.482 15.9548 109.263 15.9548H108.329C107.724 15.9548 107.285 15.79 106.955 15.5152C106.625 15.2405 106.46 14.746 106.46 14.0866V10.1303H106.076Z" fill="#17F2E9" stroke="#17F2E9" stroke-width="0.4" stroke-miterlimit="10"/>
<path d="M116.131 13.8671C116.351 13.8671 116.516 13.9221 116.68 14.0869C116.845 14.2518 116.9 14.4166 116.9 14.6364C116.9 14.7463 116.845 14.8562 116.79 14.9661C116.735 15.076 116.626 15.1859 116.461 15.3508C116.241 15.5156 115.966 15.6804 115.581 15.7903C115.252 15.9002 114.867 15.9552 114.428 15.9552C113.933 15.9552 113.439 15.8453 113.054 15.6804C112.614 15.5156 112.285 15.2409 111.955 14.9112C111.625 14.5815 111.405 14.1968 111.241 13.7572C111.076 13.3177 110.966 12.8231 110.966 12.2736C110.966 11.6692 111.076 11.1747 111.241 10.6801C111.405 10.2405 111.68 9.80096 112.01 9.47127C112.34 9.14158 112.669 8.86683 113.109 8.70199C113.548 8.53714 113.988 8.42725 114.428 8.42725C114.922 8.42725 115.417 8.53714 115.856 8.75694C116.296 8.97673 116.68 9.19652 116.955 9.52622C117.285 9.85591 117.505 10.1856 117.67 10.6252C117.834 11.0098 117.944 11.4494 117.944 11.8341C117.944 12.2187 117.889 12.4934 117.724 12.7132C117.56 12.8781 117.395 12.988 117.175 12.988H112.889C112.944 13.3726 113.109 13.7023 113.384 13.977C113.658 14.2518 114.043 14.3617 114.537 14.3617C114.977 14.3617 115.307 14.2518 115.581 14.032C115.746 13.977 115.911 13.8671 116.131 13.8671ZM116.131 11.889C116.131 11.6143 116.076 11.3945 115.966 11.1747C115.856 10.9549 115.746 10.79 115.581 10.6252C115.417 10.4603 115.252 10.3504 115.032 10.2405C114.812 10.1306 114.592 10.0757 114.373 10.0757C114.153 10.0757 113.933 10.1306 113.713 10.2405C113.493 10.3504 113.329 10.4603 113.219 10.6252C113.054 10.79 112.944 10.9549 112.889 11.1747C112.779 11.3945 112.779 11.6143 112.779 11.889H116.131Z" fill="#17F2E9" stroke="#17F2E9" stroke-width="0.4" stroke-miterlimit="10"/>
<path d="M126.075 15.076C126.075 15.3507 125.965 15.5705 125.801 15.7354C125.636 15.9002 125.416 16.0101 125.141 16.0101C124.866 16.0101 124.647 15.9002 124.482 15.7354C124.317 15.5705 124.207 15.3507 124.207 15.076V11.5043C124.207 11.0098 124.097 10.6801 123.822 10.4054C123.603 10.1856 123.273 10.0757 122.833 10.0757C122.559 10.0757 122.339 10.1306 122.119 10.1856C121.899 10.2955 121.734 10.4054 121.57 10.5153C121.405 10.6801 121.295 10.8449 121.24 11.0098C121.13 11.2296 121.13 11.3944 121.13 11.6142V14.9661C121.13 15.2408 121.02 15.4606 120.855 15.6255C120.69 15.7903 120.471 15.9002 120.196 15.9002C119.921 15.9002 119.701 15.7903 119.536 15.6255C119.372 15.4606 119.262 15.2408 119.262 14.9661V9.41629C119.262 9.19649 119.317 8.9767 119.482 8.81185C119.646 8.64701 119.866 8.53711 120.086 8.53711C120.306 8.53711 120.526 8.59206 120.69 8.7569C120.855 8.92175 120.965 9.08659 120.965 9.30639L121.02 9.96577C121.24 9.52618 121.57 9.19649 122.009 8.92175C122.449 8.64701 122.888 8.53711 123.438 8.53711C123.987 8.53711 124.482 8.70195 124.921 8.9767C125.361 9.25144 125.636 9.63608 125.856 10.1306C126.075 9.63608 126.405 9.25144 126.845 8.9767C127.284 8.70195 127.779 8.53711 128.328 8.53711C128.713 8.53711 129.043 8.59206 129.317 8.7569C129.647 8.92175 129.922 9.08659 130.142 9.30639C130.361 9.52618 130.581 9.80092 130.691 10.1306C130.801 10.4603 130.911 10.79 130.911 11.1197V15.076C130.911 15.3507 130.801 15.5705 130.636 15.7354C130.471 15.9002 130.251 16.0101 129.977 16.0101C129.702 16.0101 129.482 15.9002 129.317 15.7354C129.152 15.5705 129.043 15.3507 129.043 15.076V11.5043C129.043 11.0098 128.933 10.6801 128.658 10.4603C128.383 10.2405 128.108 10.0757 127.669 10.0757C127.394 10.0757 127.174 10.1306 127.009 10.1856C126.79 10.2955 126.625 10.4054 126.46 10.5153C126.295 10.6801 126.185 10.8449 126.13 11.0098C126.02 11.2296 126.02 11.3944 126.02 11.6142V15.076H126.075Z" fill="#17F2E9" stroke="#17F2E9" stroke-width="0.4" stroke-miterlimit="10"/>
<g clip-path="url(#clip0_11738_68786)">
<path d="M139.261 13.1253C139.269 13.0781 139.273 13.0269 139.265 12.9836C139.242 12.826 139.171 12.6645 139.037 12.5661C138.902 12.4676 138.725 12.3928 138.551 12.4243C138.327 12.4637 138.149 12.5267 137.952 12.637C137.901 12.6645 137.853 12.7 137.81 12.7394C137.731 12.8063 137.648 12.8733 137.585 12.956C137.313 13.3065 137.206 13.7437 137.309 14.1691C137.408 14.5747 137.695 14.9134 138.114 15.0395C138.437 15.1379 138.8 15.0749 139.029 14.815C139.19 14.6299 139.21 14.4132 139.222 14.1848" fill="#715AB4"/>
</g>
<g opacity="0.8">
<path opacity="0.8" d="M151.637 10.446C152.679 9.31101 154.193 8.58028 155.771 8.45606C156.439 8.40418 157.219 8.50923 157.581 9.05174C157.832 9.42891 157.802 9.92735 157.639 10.3448C157.253 11.3396 156.171 12.0051 155.063 12.0794C153.955 12.1538 152.851 11.6947 152.03 10.9782" fill="#ECEAE9" fill-opacity="0.8"/>
</g>
<g opacity="0.8">
<path opacity="0.8" d="M151.869 10.4615C153.34 9.90525 154.566 8.78762 155.217 7.40994C155.495 6.82595 155.648 6.08748 155.234 5.58297C154.944 5.23009 154.446 5.09174 153.978 5.09908C152.866 5.11371 151.848 5.86355 151.405 6.83375C150.963 7.80396 151.046 8.9503 151.476 9.93209" fill="#ECEAE9" fill-opacity="0.8"/>
</g>
<path fill-rule="evenodd" clip-rule="evenodd" d="M149.966 17.6197C149.966 17.3877 150.154 17.1997 150.386 17.1997H161.238C161.47 17.1997 161.658 17.3877 161.658 17.6197C161.658 17.8517 161.47 18.0397 161.238 18.0397H150.386C150.154 18.0397 149.966 17.8517 149.966 17.6197Z" fill="#17F2E9"/>
<path fill-rule="evenodd" clip-rule="evenodd" d="M147.184 15.7037C147.184 15.4717 147.372 15.2837 147.604 15.2837H158.664C158.896 15.2837 159.084 15.4717 159.084 15.7037C159.084 15.9357 158.896 16.1237 158.664 16.1237H147.604C147.372 16.1237 147.184 15.9357 147.184 15.7037Z" fill="#17F2E9"/>
<path fill-rule="evenodd" clip-rule="evenodd" d="M148.074 13.7877C148.074 13.5557 148.262 13.3677 148.494 13.3677H159.554C159.786 13.3677 159.974 13.5557 159.974 13.7877C159.974 14.0196 159.786 14.2077 159.554 14.2077H148.494C148.262 14.2077 148.074 14.0196 148.074 13.7877Z" fill="#17F2E9"/>
<path d="M151.848 2.0318C151.35 2.26657 150.742 2.06624 150.485 1.58104C150.229 1.09585 150.422 0.513619 150.919 0.278848C151.417 0.0440776 152.025 0.244415 152.281 0.729608C152.535 1.2148 152.342 1.79703 151.848 2.0318Z" fill="#715AB4"/>
<path d="M151.078 1.00919C149.915 1.33786 148.854 1.9827 148.04 2.86544C147.913 3.00004 147.904 3.2129 148.04 3.3475C148.167 3.47271 148.401 3.48523 148.528 3.3475C149.263 2.54928 150.207 1.96392 151.258 1.66654C151.686 1.54446 151.505 0.887105 151.078 1.00919Z" fill="#715AB4"/>
<path d="M148.919 20.6C148.793 21.0351 148.739 21.5047 148.789 21.9554C148.843 22.4438 148.983 22.9509 149.366 23.2952C149.794 23.6771 150.345 23.771 150.905 23.7428C151.365 23.7209 151.827 23.6364 152.255 23.4642C152.476 23.3735 152.657 23.2764 152.781 23.0636C152.891 22.8757 152.939 22.6003 152.869 22.3905C152.8 22.1808 152.667 21.9774 152.464 21.8709C152.267 21.7676 151.998 21.6956 151.783 21.7833C151.514 21.8928 151.238 21.9648 150.95 22.0055C151.029 21.9961 151.105 21.9836 151.184 21.9742C150.931 22.0055 150.668 22.018 150.414 21.9867C150.494 21.9961 150.57 22.0087 150.649 22.018C150.566 22.0055 150.487 21.9867 150.411 21.9554C150.481 21.9836 150.551 22.0149 150.623 22.0431C150.57 22.018 150.522 21.9899 150.475 21.9554C150.535 22.0024 150.595 22.0462 150.652 22.0932C150.601 22.0525 150.557 22.0055 150.516 21.9554C150.563 22.0149 150.608 22.0744 150.655 22.1307C150.611 22.0681 150.573 22.0024 150.541 21.9335C150.57 22.0024 150.601 22.0713 150.63 22.1433C150.579 22.018 150.547 21.8897 150.528 21.7582C150.538 21.8365 150.551 21.9116 150.56 21.9899C150.528 21.7457 150.532 21.5047 150.56 21.2605C150.551 21.3388 150.538 21.4139 150.528 21.4922C150.551 21.3482 150.579 21.2042 150.62 21.0664C150.747 20.6282 150.465 20.0992 150.003 19.9928C149.531 19.8863 149.055 20.1336 148.919 20.6Z" fill="#715AB4"/>
<path d="M150.949 22.9978C150.942 23.0885 150.958 23.1793 150.974 23.267C150.98 23.3139 150.993 23.3578 151.012 23.4016C151.079 23.5769 151.164 23.7303 151.3 23.8617C151.436 23.9932 151.595 24.084 151.775 24.1403C152.01 24.2123 152.263 24.1841 152.482 24.0777C152.504 24.0683 152.52 24.0558 152.539 24.0433C152.593 24.0026 152.653 23.965 152.7 23.9118C152.808 23.7897 152.859 23.6896 152.919 23.5424C152.976 23.3984 152.998 23.2357 153.001 23.0823C153.004 22.9289 152.979 22.7693 152.947 22.619C152.919 22.4813 152.871 22.3404 152.795 22.2215C152.65 21.993 152.434 21.8396 152.165 21.8051C152.121 21.7989 152.073 21.7895 152.029 21.7926C151.959 21.7957 151.88 21.8051 151.813 21.8239C151.75 21.8458 151.677 21.8709 151.623 21.9116C151.509 21.9898 151.462 22.0462 151.376 22.1589C151.332 22.2277 151.307 22.3028 151.303 22.3842C151.284 22.4656 151.288 22.5439 151.313 22.6253C151.351 22.7661 151.462 22.9164 151.595 22.9852C151.737 23.0604 151.908 23.0979 152.067 23.0447C152.114 23.0259 152.165 23.004 152.213 22.9852C152.304 22.932 152.377 22.86 152.431 22.7693C152.434 22.7661 152.437 22.763 152.441 22.7599C152.409 22.8006 152.377 22.8413 152.346 22.8819C152.352 22.8757 152.358 22.8694 152.365 22.8632C152.323 22.8945 152.282 22.9258 152.241 22.9571C152.251 22.9477 152.263 22.9414 152.273 22.9352C152.225 22.9539 152.175 22.9759 152.127 22.9946C152.143 22.9884 152.159 22.9821 152.178 22.979C152.124 22.9852 152.07 22.9946 152.016 23.0009C152.038 22.9978 152.061 22.9978 152.086 23.0009C152.032 22.9946 151.978 22.9852 151.924 22.979C151.943 22.9821 151.959 22.9884 151.978 22.9946C151.931 22.9759 151.88 22.9539 151.832 22.9352C151.855 22.9446 151.874 22.9571 151.893 22.9696C151.851 22.9383 151.81 22.907 151.769 22.8757C151.785 22.8913 151.801 22.9039 151.813 22.9226C151.782 22.882 151.75 22.8413 151.718 22.8006C151.741 22.8319 151.76 22.8632 151.775 22.8976C151.756 22.8506 151.734 22.8006 151.715 22.7536C151.753 22.8475 151.775 22.9477 151.788 23.0479C151.782 22.9946 151.772 22.9414 151.766 22.8882C151.779 22.9852 151.782 23.0823 151.769 23.1793C151.775 23.1261 151.785 23.0729 151.791 23.0197C151.782 23.0885 151.766 23.1574 151.737 23.2232C151.756 23.1762 151.779 23.1261 151.798 23.0792C151.785 23.1105 151.766 23.1386 151.747 23.1668C151.779 23.1261 151.81 23.0854 151.842 23.0447C151.826 23.0635 151.813 23.0792 151.794 23.0948C151.836 23.0635 151.877 23.0322 151.918 23.0009C151.899 23.0134 151.88 23.0259 151.861 23.0353C151.908 23.0166 151.959 22.9946 152.007 22.9759C151.984 22.9852 151.965 22.9884 151.943 22.9946C151.997 22.9884 152.051 22.979 152.105 22.9727C152.07 22.9759 152.038 22.9759 152.003 22.9727C152.057 22.979 152.111 22.9884 152.165 22.9946C152.13 22.9884 152.099 22.979 152.064 22.9665C152.111 22.9852 152.162 23.0072 152.209 23.0259C152.165 23.0072 152.124 22.9821 152.086 22.9539C152.127 22.9852 152.168 23.0166 152.209 23.0479C152.171 23.0197 152.14 22.9853 152.108 22.9477C152.14 22.9884 152.171 23.0291 152.203 23.0698C152.171 23.0291 152.146 22.9821 152.124 22.9352C152.143 22.9821 152.165 23.0322 152.184 23.0792C152.165 23.0353 152.156 22.9915 152.146 22.9446C152.152 22.9978 152.162 23.051 152.168 23.1042C152.165 23.0666 152.162 23.0322 152.165 22.9946C152.175 22.8475 152.089 22.6691 151.984 22.5658C151.88 22.4625 151.706 22.3811 151.551 22.3874C151.392 22.3936 151.227 22.4468 151.117 22.5658C151.085 22.6065 151.053 22.6472 151.022 22.6879C150.977 22.788 150.949 22.8882 150.949 22.9978Z" fill="#715AB4"/>
<path d="M146.122 20.3284C143.902 19.0293 141.89 17.3389 140.544 15.2104C139.195 13.0849 138.517 9.96715 139.055 7.53492C139.594 5.1027 140.598 3.6659 143.059 2.85203C145.517 2.03816 149.385 2.56405 150.851 4.61751C152.14 6.41742 152.118 8.79016 153.053 10.7779C154.066 12.9346 156.239 14.8973 155.736 17.2106C155.596 17.8461 155.257 18.4283 154.839 18.9417C153.591 20.4661 151.596 21.4083 149.572 21.4271C147.548 21.4459 146.277 20.4473 144.351 19.1702" fill="#FFB701"/>
<path d="M144.408 19.1889L144.541 19.2765C149.597 19.1169 153.046 15.6642 154.719 13.5012C154.335 12.8876 153.914 12.2741 153.543 11.6543C150.154 17.0916 144.931 17.2512 141.652 16.6784C142.457 17.6143 143.394 18.4501 144.408 19.1889Z" fill="#715AB4"/>
<path d="M143.398 18.6815C143.205 18.6752 143.012 18.669 142.819 18.6627C142.739 18.6596 142.666 18.6627 142.587 18.6784C142.499 18.6971 142.41 18.7472 142.347 18.8098C142.312 18.8443 142.309 18.8349 142.264 18.9131C142.245 18.9476 142.217 19.0039 142.207 19.0446C142.176 19.1792 142.185 19.2762 142.204 19.4108C142.217 19.4954 142.255 19.5736 142.29 19.6519C142.312 19.702 142.337 19.7458 142.369 19.7896C142.486 19.9461 142.616 20.0776 142.79 20.1746C142.99 20.2873 143.221 20.3437 143.449 20.3468C143.572 20.3468 143.702 20.2936 143.788 20.2091C143.87 20.1277 143.934 19.9931 143.927 19.8741C143.921 19.752 143.88 19.6237 143.788 19.5392C143.693 19.4547 143.579 19.4015 143.449 19.4015C143.411 19.4015 143.373 19.3983 143.332 19.3952C143.373 19.4015 143.417 19.4077 143.458 19.4108C143.382 19.4015 143.309 19.3795 143.24 19.3514C143.278 19.367 143.316 19.3827 143.354 19.3983C143.29 19.3702 143.23 19.3357 143.173 19.2919C143.205 19.3169 143.237 19.342 143.271 19.367C143.218 19.3263 143.17 19.2762 143.126 19.223C143.151 19.2543 143.176 19.2856 143.202 19.3201C143.167 19.2762 143.138 19.2262 143.116 19.1761C143.132 19.2136 143.148 19.2512 143.164 19.2888C143.145 19.2481 143.132 19.2042 143.126 19.1573C143.132 19.198 143.138 19.2418 143.142 19.2825C143.138 19.2512 143.138 19.2199 143.142 19.1855C143.135 19.2262 143.129 19.27 143.126 19.3107C143.126 19.3013 143.129 19.295 143.132 19.2856C143.116 19.3232 143.1 19.3608 143.085 19.3983C143.088 19.3952 143.088 19.3921 143.091 19.3889C143.066 19.4202 143.04 19.4515 143.015 19.486C143.018 19.4828 143.021 19.4797 143.024 19.4797C142.993 19.5048 142.961 19.5298 142.926 19.5548C142.929 19.5548 142.933 19.5517 142.936 19.5517C142.898 19.5674 142.86 19.583 142.822 19.5987C142.828 19.5955 142.834 19.5955 142.841 19.5924C142.8 19.5987 142.755 19.6049 142.714 19.6081C142.765 19.6049 142.819 19.6081 142.872 19.6112C142.933 19.6143 142.99 19.6143 143.05 19.6174C143.167 19.6206 143.281 19.6237 143.398 19.6268C143.519 19.63 143.655 19.5705 143.737 19.4891C143.819 19.4077 143.883 19.2731 143.876 19.1542C143.87 19.0321 143.829 18.9037 143.737 18.8192C143.642 18.7316 143.531 18.6846 143.398 18.6815Z" fill="#715AB4"/>
<path d="M139.493 11.9329L141.872 12.4432L140.503 18.7694L138.071 17.8898C137.849 17.8084 137.725 17.5862 137.779 17.3639L139.053 12.1959C139.097 12.008 139.293 11.8891 139.493 11.9329Z" fill="#F9F7FF"/>
<path d="M141.87 12.4429L147.505 13.6167C147.746 13.6668 147.898 13.8922 147.848 14.1207L146.847 18.7598C146.79 19.0196 146.539 19.2011 146.261 19.1824L140.502 18.7692" fill="#E4E4E4"/>
<path d="M140.743 13.2725L141.611 13.4258L143.752 13.7764L143.451 15.0818L141.402 14.656L140.502 14.4025L140.743 13.2725Z" fill="#5F46A7"/>
<path d="M141.652 13.4385L141.402 14.6812L140.502 14.4152L140.743 13.3008L141.652 13.4385Z" fill="#8468D5"/>
<path d="M155.394 18.3122C156.002 19.101 156.749 19.7458 157.639 20.2122C158.72 20.7788 157.937 22.4973 156.851 21.9276C155.656 21.2984 154.649 20.4658 153.832 19.4078C153.094 18.4436 154.656 17.348 155.394 18.3122Z" fill="#715AB4"/>
<path d="M156.293 21.155C156.277 21.1957 156.265 21.2364 156.258 21.2771C156.243 21.3679 156.224 21.4712 156.233 21.5651C156.249 21.756 156.287 21.9125 156.379 22.0847C156.464 22.2475 156.604 22.3821 156.759 22.4854C156.911 22.5855 157.12 22.6482 157.304 22.6294C157.449 22.6169 157.582 22.5887 157.709 22.5104C157.791 22.4572 157.871 22.3977 157.934 22.3226C157.994 22.2506 158.054 22.1755 158.102 22.0941C158.149 22.0096 158.187 21.9157 158.222 21.8249C158.276 21.684 158.295 21.5338 158.314 21.3867C158.333 21.2333 158.327 21.0955 158.298 20.9453C158.279 20.8482 158.238 20.7481 158.181 20.6667C158.102 20.554 158.01 20.4507 157.883 20.385C157.636 20.2566 157.307 20.2222 157.066 20.3881C156.933 20.4789 156.829 20.5916 156.784 20.7481C156.743 20.8921 156.762 21.0861 156.844 21.2145C156.93 21.3428 157.053 21.4587 157.209 21.4931C157.361 21.5275 157.548 21.5244 157.681 21.4336C157.693 21.4242 157.703 21.418 157.715 21.4117C157.668 21.4305 157.617 21.4524 157.57 21.4712C157.582 21.468 157.595 21.4649 157.611 21.4618C157.557 21.468 157.503 21.4774 157.449 21.4837C157.465 21.4837 157.478 21.4837 157.491 21.4837C157.437 21.4774 157.383 21.468 157.329 21.4618C157.348 21.4649 157.367 21.468 157.383 21.4743C157.335 21.4555 157.285 21.4336 157.237 21.4148C157.259 21.4242 157.281 21.4367 157.3 21.4493C157.259 21.418 157.218 21.3867 157.177 21.3554C157.193 21.3679 157.205 21.3804 157.218 21.396C157.186 21.3553 157.155 21.3147 157.123 21.274C157.136 21.2927 157.148 21.3115 157.158 21.3334C157.139 21.2865 157.117 21.2364 157.098 21.1894C157.11 21.2239 157.12 21.2583 157.123 21.2927C157.117 21.2395 157.107 21.1863 157.101 21.1331C157.11 21.2176 157.101 21.3053 157.091 21.3898C157.098 21.3366 157.107 21.2834 157.114 21.2301C157.098 21.3334 157.076 21.4367 157.034 21.5338C157.053 21.4868 157.076 21.4367 157.095 21.3898C157.066 21.4586 157.028 21.5213 156.984 21.5807C157.015 21.54 157.047 21.4993 157.079 21.4587C157.053 21.49 157.025 21.5213 156.993 21.5463C157.034 21.515 157.076 21.4837 157.117 21.4524C157.095 21.4712 157.069 21.4837 157.044 21.4962C157.091 21.4774 157.142 21.4555 157.19 21.4367C157.174 21.443 157.158 21.4461 157.139 21.4493C157.193 21.443 157.247 21.4336 157.3 21.4273C157.278 21.4305 157.253 21.4305 157.231 21.4305C157.285 21.4367 157.338 21.4461 157.392 21.4524C157.364 21.4493 157.335 21.4399 157.307 21.4305C157.354 21.4493 157.405 21.4712 157.453 21.49C157.418 21.4743 157.389 21.4587 157.357 21.4367C157.399 21.468 157.44 21.4993 157.481 21.5306C157.446 21.5025 157.415 21.4743 157.386 21.4399C157.418 21.4806 157.449 21.5213 157.481 21.562C157.453 21.5244 157.427 21.4837 157.408 21.4367C157.427 21.4837 157.449 21.5338 157.468 21.5807C157.449 21.5369 157.437 21.49 157.43 21.443C157.437 21.4962 157.446 21.5494 157.453 21.6026C157.446 21.5494 157.446 21.4962 157.453 21.443C157.446 21.4962 157.437 21.5494 157.43 21.6026C157.437 21.5588 157.449 21.5181 157.465 21.4806C157.519 21.346 157.475 21.1362 157.405 21.0142C157.332 20.8889 157.186 20.77 157.041 20.7356C156.886 20.7011 156.708 20.7074 156.569 20.795C156.528 20.8263 156.486 20.8576 156.445 20.8889C156.372 20.9641 156.322 21.0517 156.293 21.155Z" fill="#715AB4"/>
<path d="M140.229 10.5141C140.644 11.3843 141.632 11.9384 142.573 11.9791C143.071 12.001 145.912 11.976 146.273 11.9353C146.891 11.8664 147.049 11.7506 147.489 11.447C148.221 10.943 148.557 9.95381 148.674 9.10864C148.791 8.24155 148.794 7.28369 148.36 6.4886C147.492 4.89529 145.43 4.57913 143.799 4.59478C142.956 4.60417 142.003 4.85459 141.303 5.37422C140.559 5.92828 140.229 6.64824 140.08 7.52159C140.017 8.00678 139.985 8.48884 139.995 8.97717C140.004 9.48114 140.011 10.054 140.229 10.5141Z" fill="#FEFDFF"/>
<path d="M148.081 15.8391C146.959 17.3542 145.537 19.1541 143.446 19.0226C143.079 19.0007 142.769 19.3482 142.769 19.6925C142.769 20.0744 143.079 20.3405 143.446 20.3624C144.691 20.4406 145.885 19.9398 146.855 19.1948C147.818 18.456 148.54 17.4794 149.253 16.5153C149.468 16.2241 149.303 15.7671 149.009 15.5981C148.667 15.4009 148.299 15.5449 148.081 15.8391Z" fill="#715AB4"/>
<path d="M143.451 19.8332C143.615 19.8332 143.761 19.7925 143.91 19.7236C143.954 19.7048 143.996 19.6798 144.037 19.6485C144.1 19.6015 144.163 19.5577 144.211 19.4982C144.312 19.3762 144.395 19.2447 144.433 19.0882C144.471 18.9285 144.471 18.7689 144.43 18.6092C144.404 18.5122 144.328 18.4183 144.243 18.3682C144.154 18.3181 144.027 18.2962 143.929 18.3275C143.831 18.3588 143.736 18.4183 143.685 18.5122C143.634 18.6092 143.619 18.7125 143.644 18.8221C143.65 18.844 143.653 18.8659 143.657 18.8878C143.65 18.8534 143.647 18.8158 143.641 18.7814C143.647 18.8315 143.647 18.8784 143.641 18.9285C143.647 18.8941 143.65 18.8565 143.657 18.8221C143.65 18.8722 143.634 18.9191 143.619 18.963C143.631 18.9317 143.647 18.9004 143.66 18.8659C143.641 18.9129 143.615 18.9536 143.584 18.9943C143.606 18.9661 143.625 18.941 143.647 18.9129C143.615 18.9504 143.584 18.9849 143.543 19.013C143.571 18.9911 143.596 18.9723 143.625 18.9504C143.584 18.9817 143.536 19.0068 143.489 19.0287C143.52 19.0162 143.552 19.0005 143.587 18.988C143.533 19.0099 143.479 19.0256 143.422 19.0318C143.457 19.0256 143.495 19.0224 143.53 19.0162C143.505 19.0193 143.476 19.0224 143.451 19.0224C143.346 19.0224 143.239 19.0663 143.162 19.1414C143.093 19.2103 143.039 19.3261 143.042 19.4262C143.045 19.5295 143.08 19.6391 143.162 19.7111C143.242 19.7894 143.34 19.8332 143.451 19.8332Z" fill="#715AB4"/>
<path d="M154.849 18.9451C155.267 18.4317 155.61 17.8495 155.746 17.214C155.898 16.5191 155.803 15.8555 155.575 15.2075C153.047 19.327 149.471 20.457 146.452 20.5259C147.425 21.0862 148.369 21.4399 149.582 21.4305C151.606 21.4117 153.601 20.4695 154.849 18.9451Z" fill="#715AB4"/>
<path d="M147.01 19.3143C147.01 19.3143 150.371 16.743 149.221 15.512" stroke="#FFB701" stroke-width="0.4" stroke-miterlimit="10" stroke-linecap="round"/>
<path d="M154.172 3.79068C153.495 3.49331 152.715 3.59661 152.015 3.76564C151.375 3.92216 150.726 4.1538 150.162 4.49187C149.782 4.72038 150.131 5.30887 150.511 5.08036C150.999 4.78924 151.543 4.59203 152.091 4.44804C152.351 4.37918 152.614 4.32596 152.88 4.30092C153.19 4.26962 153.533 4.2477 153.827 4.37605C153.998 4.45117 154.198 4.42613 154.299 4.25396C154.385 4.1131 154.347 3.86581 154.172 3.79068Z" fill="#715AB4"/>
<path d="M154.753 4.71723C154.303 5.03339 153.67 4.93635 153.334 4.50125C152.998 4.06614 153.09 3.46199 153.537 3.14584C153.987 2.82968 154.62 2.92672 154.956 3.36182C155.292 3.7938 155.203 4.40108 154.753 4.71723Z" fill="#715AB4"/>
<path d="M144.217 7.65127C144.204 7.933 144.528 8.18029 144.939 8.19907C145.351 8.21785 145.7 8.00812 145.712 7.72327C145.728 7.44154 145.402 7.19425 144.99 7.17547C144.578 7.15669 144.233 7.36955 144.217 7.65127Z" fill="#221F20"/>
<path d="M140.899 7.7109C140.886 7.97071 141.181 8.19922 141.558 8.218C141.935 8.23678 142.251 8.03958 142.264 7.77976C142.277 7.51995 141.982 7.29144 141.605 7.27266C141.228 7.25075 140.912 7.44795 140.899 7.7109Z" fill="#221F20"/>
<path d="M144.478 9.32275C144.145 9.70465 143.689 9.94881 143.179 9.96446C142.669 9.98011 142.197 9.76412 141.836 9.40101" stroke="#221F20" stroke-width="0.5" stroke-miterlimit="10" stroke-linecap="round"/>
<path d="M147.528 9.20767C147.512 9.54574 147.113 9.80243 146.634 9.77738C146.159 9.75547 145.785 9.46123 145.804 9.12316C145.82 8.78509 146.219 8.5284 146.698 8.55345C147.173 8.57849 147.547 8.8696 147.528 9.20767Z" fill="#FFB701"/>
<path d="M141.08 9.12512C141.067 9.37242 140.842 9.56649 140.573 9.55084C140.307 9.53832 140.101 9.32546 140.114 9.07504C140.127 8.82775 140.351 8.63367 140.621 8.64932C140.887 8.66184 141.093 8.8747 141.08 9.12512Z" fill="#FFB701"/>
<defs>
<clipPath id="clip0_11738_68786">
<rect width="2.88035" height="3.84047" fill="white" transform="translate(136.911 12.3364)"/>
</clipPath>
</defs>
</svg>
